<?xml version="1.0" encoding="UTF-8" standalone="no"?>
<!-- Generator: Adobe Illustrator 23.0.2, SVG Export Plug-In . SVG Version: 6.00 Build 0)  -->

<svg
   version="1.1"
   id="Layer_1"
   x="0px"
   y="0px"
   viewBox="0 0 674.7 674.70001"
   xml:space="preserve"
   sodipodi:docname="logo.svg"
   width="674.70001"
   height="674.70001"
   inkscape:version="1.1.2 (0a00cf5339, 2022-02-04)"
   xmlns:inkscape="http://www.inkscape.org/namespaces/inkscape"
   xmlns:sodipodi="http://sodipodi.sourceforge.net/DTD/sodipodi-0.dtd"
   xmlns="http://www.w3.org/2000/svg"
   xmlns:svg="http://www.w3.org/2000/svg"
   xmlns:rdf="http://www.w3.org/1999/02/22-rdf-syntax-ns#"
   xmlns:cc="http://creativecommons.org/ns#"
   xmlns:dc="http://purl.org/dc/elements/1.1/"><defs
   id="defs21" /><sodipodi:namedview
   id="namedview19"
   pagecolor="#ffffff"
   bordercolor="#666666"
   borderopacity="1.0"
   inkscape:pageshadow="2"
   inkscape:pageopacity="0.0"
   inkscape:pagecheckerboard="0"
   showgrid="false"
   inkscape:zoom="0.58748298"
   inkscape:cx="497.88676"
   inkscape:cy="460.43887"
   inkscape:window-width="1920"
   inkscape:window-height="1016"
   inkscape:window-x="0"
   inkscape:window-y="27"
   inkscape:window-maximized="1"
   inkscape:current-layer="Layer_1" />
<style
   type="text/css"
   id="style2">
	.st0{fill:#FFFFFF;}
</style>
<title
   id="title4">Artboard 1</title>
<rect
   style="fill:#09be52;fill-opacity:1;stroke-width:1.38718;stroke-dasharray:1.38718, 1.38718"
   id="rect862"
   width="674.70001"
   height="674.70001"
   x="0"
   y="0" /><g
   id="g16"
   transform="translate(0,162.85001)">
	<path
   class="st0"
   d="M 195.4,139.6 H 140.6 V 157 h 35.7 c 2.2,0 4,1.8 4,4 v 30.9 h -7.6 c -2.2,0 -4,-1.8 -4,-4 v -22.2 h -15.1 c -7.7,0 -14,6.3 -14,14 v 0 15.6 c 0,7.7 6.3,14 14,14 h 55.8 v -55.8 c 0,-7.6 -6.3,-13.9 -14,-13.9 z"
   id="path6" />
	<path
   class="st0"
   d="m 261.7,191.9 h -7.6 c -2.2,0 -4,-1.8 -4,-4 V 139.6 H 235 c -7.7,0 -14,6.3 -14,14 v 41.8 c 0,7.7 6.3,14 14,14 h 55.8 v -98.9 h -29.1 z"
   id="path8" />
	<path
   class="st0"
   d="m 343.2,191.9 h -7.6 c -2.2,0 -4,-1.8 -4,-4 v -48.3 h -29.1 v 55.8 c 0,7.7 6.3,14 14,14 h 26.7 v 8.7 h -39.7 v 20.4 h 54.8 c 7.7,0 14,-6.3 14,-14 v -84.9 h -29.1 z"
   id="path10" />
	<path
   class="st0"
   d="m 439.7,139.6 h -55.8 v 55.8 c 0,7.7 6.3,14 14,14 h 54.8 V 192 H 417 c -2.2,0 -4,-1.8 -4,-4 v -31 h 7.6 c 2.2,0 4,1.8 4,4 v 22.2 h 15.1 c 7.7,0 14,-6.3 14,-14 v -15.6 c 0,-7.7 -6.3,-14 -14,-14 z"
   id="path12" />
	<path
   class="st0"
   d="m 521.1,139.6 h -55.8 v 69.8 h 29.1 V 157 h 7.6 c 2.2,0 4,1.8 4,4 v 48.3 h 29.1 v -55.8 c 0,-7.6 -6.2,-13.9 -14,-13.9 z"
   id="path14" />
</g>
<metadata
   id="metadata838"><rdf:RDF><cc:Work
       rdf:about=""><dc:title>Artboard 1</dc:title></cc:Work></rdf:RDF></metadata></svg>
